<svg width="486" height="126" viewBox="0 0 486 126" fill="none" xmlns="http://www.w3.org/2000/svg">
<rect width="486" height="126" fill="white"/>
<path d="M143.865 98V83.6836H145.76V98H143.865Z" fill="black"/>
<path d="M149.09 98V83.6836H151.033L158.553 94.9238V83.6836H160.369V98H158.426L150.906 86.75V98H149.09Z" fill="black"/>
<path d="M170.262 92.3848V90.7051L176.326 90.6953V96.0078C175.395 96.75 174.435 97.3099 173.445 97.6875C172.456 98.0586 171.44 98.2441 170.398 98.2441C168.992 98.2441 167.713 97.9447 166.561 97.3457C165.415 96.7402 164.549 95.8678 163.963 94.7285C163.377 93.5892 163.084 92.3164 163.084 90.9102C163.084 89.5169 163.374 88.2181 163.953 87.0137C164.539 85.8027 165.379 84.9043 166.473 84.3184C167.566 83.7324 168.826 83.4395 170.252 83.4395C171.287 83.4395 172.221 83.6087 173.055 83.9473C173.895 84.2793 174.552 84.7448 175.027 85.3438C175.503 85.9427 175.864 86.724 176.111 87.6875L174.402 88.1562C174.188 87.4271 173.921 86.8542 173.602 86.4375C173.283 86.0208 172.827 85.6888 172.234 85.4414C171.642 85.1875 170.984 85.0605 170.262 85.0605C169.396 85.0605 168.647 85.194 168.016 85.4609C167.384 85.7214 166.873 86.0664 166.482 86.4961C166.098 86.9258 165.799 87.3978 165.584 87.9121C165.219 88.7975 165.037 89.7578 165.037 90.793C165.037 92.069 165.255 93.1367 165.691 93.9961C166.134 94.8555 166.775 95.4935 167.615 95.9102C168.455 96.3268 169.347 96.5352 170.291 96.5352C171.111 96.5352 171.912 96.3789 172.693 96.0664C173.475 95.7474 174.067 95.4089 174.471 95.0508V92.3848H170.262Z" fill="black"/>
<path d="M179.168 98V83.6836H189.52V85.373H181.062V89.7578H188.982V91.4375H181.062V96.3105H189.852V98H179.168Z" fill="black"/>
<path d="M192.449 98V83.6836H194.393L201.912 94.9238V83.6836H203.729V98H201.785L194.266 86.75V98H192.449Z" fill="black"/>
<path d="M207.244 98V83.6836H209.139V98H207.244Z" fill="black"/>
<path d="M212.527 98V83.6836H222.879V85.373H214.422V89.7578H222.342V91.4375H214.422V96.3105H223.211V98H212.527Z" fill="black"/>
<path d="M225.857 98V83.6836H232.205C233.481 83.6836 234.451 83.8138 235.115 84.0742C235.779 84.3281 236.31 84.7806 236.707 85.4316C237.104 86.0827 237.303 86.8021 237.303 87.5898C237.303 88.6055 236.974 89.4616 236.316 90.1582C235.659 90.8548 234.643 91.2975 233.27 91.4863C233.771 91.7272 234.152 91.9648 234.412 92.1992C234.965 92.707 235.49 93.3418 235.984 94.1035L238.475 98H236.092L234.197 95.0215C233.644 94.1621 233.188 93.5046 232.83 93.0488C232.472 92.5931 232.15 92.2741 231.863 92.0918C231.583 91.9095 231.297 91.7826 231.004 91.7109C230.789 91.6654 230.438 91.6426 229.949 91.6426H227.752V98H225.857ZM227.752 90.002H231.824C232.69 90.002 233.367 89.9141 233.855 89.7383C234.344 89.556 234.715 89.2695 234.969 88.8789C235.223 88.4818 235.35 88.0521 235.35 87.5898C235.35 86.9128 235.102 86.3561 234.607 85.9199C234.119 85.4837 233.344 85.2656 232.283 85.2656H227.752V90.002Z" fill="black"/>
<path d="M240.604 98V83.6836H242.498V98H240.604ZM240.115 82.8047L241.414 80.0703H243.719L241.57 82.8047H240.115Z" fill="black"/>
<path d="M244.275 98L249.773 83.6836H251.814L257.674 98H255.516L253.846 93.6641H247.859L246.287 98H244.275ZM248.406 92.1211H253.26L251.766 88.1562C251.31 86.9518 250.971 85.9622 250.75 85.1875C250.568 86.1055 250.311 87.0169 249.979 87.9219L248.406 92.1211Z" fill="black"/>
<path d="M273.855 92.9805L275.75 93.459C275.353 95.015 274.637 96.2031 273.602 97.0234C272.573 97.8372 271.313 98.2441 269.822 98.2441C268.279 98.2441 267.023 97.9316 266.053 97.3066C265.089 96.6751 264.354 95.7637 263.846 94.5723C263.344 93.3809 263.094 92.1016 263.094 90.7344C263.094 89.2435 263.377 87.9447 263.943 86.8379C264.516 85.7246 265.327 84.8815 266.375 84.3086C267.43 83.7292 268.589 83.4395 269.852 83.4395C271.284 83.4395 272.488 83.804 273.465 84.5332C274.441 85.2624 275.122 86.2878 275.506 87.6094L273.641 88.0488C273.309 87.0072 272.827 86.2487 272.195 85.7734C271.564 85.2982 270.77 85.0605 269.812 85.0605C268.712 85.0605 267.791 85.3242 267.049 85.8516C266.313 86.3789 265.796 87.0885 265.496 87.9805C265.197 88.8659 265.047 89.7806 265.047 90.7246C265.047 91.9421 265.223 93.0065 265.574 93.918C265.932 94.8229 266.486 95.5 267.234 95.9492C267.983 96.3984 268.794 96.623 269.666 96.623C270.727 96.623 271.626 96.3171 272.361 95.7051C273.097 95.0931 273.595 94.1849 273.855 92.9805Z" fill="black"/>
<path d="M277.518 91.0273C277.518 88.651 278.156 86.7923 279.432 85.4512C280.708 84.1035 282.355 83.4297 284.373 83.4297C285.695 83.4297 286.886 83.7454 287.947 84.377C289.008 85.0085 289.816 85.8906 290.369 87.0234C290.929 88.1497 291.209 89.429 291.209 90.8613C291.209 92.3132 290.916 93.612 290.33 94.7578C289.744 95.9036 288.914 96.7728 287.84 97.3652C286.766 97.9512 285.607 98.2441 284.363 98.2441C283.016 98.2441 281.811 97.9186 280.75 97.2676C279.689 96.6165 278.885 95.7279 278.338 94.6016C277.791 93.4753 277.518 92.2839 277.518 91.0273ZM279.471 91.0566C279.471 92.7819 279.933 94.1426 280.857 95.1387C281.788 96.1283 282.954 96.623 284.354 96.623C285.779 96.623 286.951 96.1217 287.869 95.1191C288.794 94.1165 289.256 92.694 289.256 90.8516C289.256 89.6862 289.057 88.6706 288.66 87.8047C288.27 86.9323 287.693 86.2585 286.932 85.7832C286.176 85.3014 285.327 85.0605 284.383 85.0605C283.042 85.0605 281.886 85.5228 280.916 86.4473C279.952 87.3652 279.471 88.9017 279.471 91.0566Z" fill="black"/>
<path d="M293.641 98V83.6836H295.584L303.104 94.9238V83.6836H304.92V98H302.977L295.457 86.75V98H293.641Z" fill="black"/>
<path d="M311.756 98V85.373H307.039V83.6836H318.387V85.373H313.65V98H311.756Z" fill="black"/>
<path d="M320.369 98V83.6836H326.717C327.993 83.6836 328.963 83.8138 329.627 84.0742C330.291 84.3281 330.822 84.7806 331.219 85.4316C331.616 86.0827 331.814 86.8021 331.814 87.5898C331.814 88.6055 331.486 89.4616 330.828 90.1582C330.171 90.8548 329.155 91.2975 327.781 91.4863C328.283 91.7272 328.663 91.9648 328.924 92.1992C329.477 92.707 330.001 93.3418 330.496 94.1035L332.986 98H330.604L328.709 95.0215C328.156 94.1621 327.7 93.5046 327.342 93.0488C326.984 92.5931 326.661 92.2741 326.375 92.0918C326.095 91.9095 325.809 91.7826 325.516 91.7109C325.301 91.6654 324.949 91.6426 324.461 91.6426H322.264V98H320.369ZM322.264 90.002H326.336C327.202 90.002 327.879 89.9141 328.367 89.7383C328.855 89.556 329.227 89.2695 329.48 88.8789C329.734 88.4818 329.861 88.0521 329.861 87.5898C329.861 86.9128 329.614 86.3561 329.119 85.9199C328.631 85.4837 327.856 85.2656 326.795 85.2656H322.264V90.002Z" fill="black"/>
<path d="M333.221 98L338.719 83.6836H340.76L346.619 98H344.461L342.791 93.6641H336.805L335.232 98H333.221ZM337.352 92.1211H342.205L340.711 88.1562C340.255 86.9518 339.917 85.9622 339.695 85.1875C339.513 86.1055 339.256 87.0169 338.924 87.9219L337.352 92.1211Z" fill="black"/>
<path d="M352.908 98V83.6836H354.803V98H352.908Z" fill="black"/>
<path d="M358.133 98V83.6836H360.076L367.596 94.9238V83.6836H369.412V98H367.469L359.949 86.75V98H358.133Z" fill="black"/>
<path d="M382.82 92.9805L384.715 93.459C384.318 95.015 383.602 96.2031 382.566 97.0234C381.538 97.8372 380.278 98.2441 378.787 98.2441C377.244 98.2441 375.988 97.9316 375.018 97.3066C374.054 96.6751 373.318 95.7637 372.811 94.5723C372.309 93.3809 372.059 92.1016 372.059 90.7344C372.059 89.2435 372.342 87.9447 372.908 86.8379C373.481 85.7246 374.292 84.8815 375.34 84.3086C376.395 83.7292 377.553 83.4395 378.816 83.4395C380.249 83.4395 381.453 83.804 382.43 84.5332C383.406 85.2624 384.087 86.2878 384.471 87.6094L382.605 88.0488C382.273 87.0072 381.792 86.2487 381.16 85.7734C380.529 85.2982 379.734 85.0605 378.777 85.0605C377.677 85.0605 376.756 85.3242 376.014 85.8516C375.278 86.3789 374.76 87.0885 374.461 87.9805C374.161 88.8659 374.012 89.7806 374.012 90.7246C374.012 91.9421 374.188 93.0065 374.539 93.918C374.897 94.8229 375.451 95.5 376.199 95.9492C376.948 96.3984 377.758 96.623 378.631 96.623C379.692 96.623 380.59 96.3171 381.326 95.7051C382.062 95.0931 382.56 94.1849 382.82 92.9805Z" fill="black"/>
<path d="M387.098 98V83.6836H397.449V85.373H388.992V89.7578H396.912V91.4375H388.992V96.3105H397.781V98H387.098Z" fill="black"/>
<path d="M400.379 98V83.6836H402.322L409.842 94.9238V83.6836H411.658V98H409.715L402.195 86.75V98H400.379Z" fill="black"/>
<path d="M414.852 98V83.6836H419.783C420.896 83.6836 421.746 83.752 422.332 83.8887C423.152 84.0775 423.852 84.4193 424.432 84.9141C425.187 85.5521 425.75 86.3691 426.121 87.3652C426.499 88.3548 426.688 89.4876 426.688 90.7637C426.688 91.8509 426.561 92.8145 426.307 93.6543C426.053 94.4941 425.727 95.1908 425.33 95.7441C424.933 96.291 424.497 96.724 424.021 97.043C423.553 97.3555 422.983 97.5931 422.312 97.7559C421.648 97.9186 420.883 98 420.018 98H414.852ZM416.746 96.3105H419.803C420.747 96.3105 421.486 96.2227 422.02 96.0469C422.56 95.8711 422.99 95.6237 423.309 95.3047C423.758 94.8555 424.106 94.2533 424.354 93.498C424.607 92.7363 424.734 91.8151 424.734 90.7344C424.734 89.237 424.487 88.0879 423.992 87.2871C423.504 86.4798 422.908 85.9395 422.205 85.666C421.697 85.4707 420.88 85.373 419.754 85.373H416.746V96.3105Z" fill="black"/>
<path d="M429.627 98V83.6836H431.521V98H429.627Z" fill="black"/>
<path d="M434.295 91.0273C434.295 88.651 434.933 86.7923 436.209 85.4512C437.485 84.1035 439.132 83.4297 441.15 83.4297C442.472 83.4297 443.663 83.7454 444.725 84.377C445.786 85.0085 446.593 85.8906 447.146 87.0234C447.706 88.1497 447.986 89.429 447.986 90.8613C447.986 92.3132 447.693 93.612 447.107 94.7578C446.521 95.9036 445.691 96.7728 444.617 97.3652C443.543 97.9512 442.384 98.2441 441.141 98.2441C439.793 98.2441 438.589 97.9186 437.527 97.2676C436.466 96.6165 435.662 95.7279 435.115 94.6016C434.568 93.4753 434.295 92.2839 434.295 91.0273ZM436.248 91.0566C436.248 92.7819 436.71 94.1426 437.635 95.1387C438.566 96.1283 439.731 96.623 441.131 96.623C442.557 96.623 443.729 96.1217 444.646 95.1191C445.571 94.1165 446.033 92.694 446.033 90.8516C446.033 89.6862 445.835 88.6706 445.438 87.8047C445.047 86.9323 444.471 86.2585 443.709 85.7832C442.954 85.3014 442.104 85.0605 441.16 85.0605C439.819 85.0605 438.663 85.5228 437.693 86.4473C436.73 87.3652 436.248 88.9017 436.248 91.0566Z" fill="black"/>
<path d="M449.793 93.4004L451.58 93.2441C451.665 93.9603 451.86 94.5495 452.166 95.0117C452.479 95.4674 452.96 95.8385 453.611 96.125C454.262 96.4049 454.995 96.5449 455.809 96.5449C456.531 96.5449 457.169 96.4375 457.723 96.2227C458.276 96.0078 458.686 95.7148 458.953 95.3438C459.227 94.9661 459.363 94.556 459.363 94.1133C459.363 93.6641 459.233 93.2734 458.973 92.9414C458.712 92.6029 458.283 92.3197 457.684 92.0918C457.299 91.9421 456.45 91.7109 455.135 91.3984C453.82 91.0794 452.898 90.7799 452.371 90.5C451.688 90.1419 451.176 89.6992 450.838 89.1719C450.506 88.638 450.34 88.0423 450.34 87.3848C450.34 86.6621 450.545 85.9883 450.955 85.3633C451.365 84.7318 451.964 84.2533 452.752 83.9277C453.54 83.6022 454.415 83.4395 455.379 83.4395C456.44 83.4395 457.374 83.612 458.182 83.957C458.995 84.2956 459.62 84.7969 460.057 85.4609C460.493 86.125 460.727 86.877 460.76 87.7168L458.943 87.8535C458.846 86.9486 458.514 86.265 457.947 85.8027C457.387 85.3405 456.557 85.1094 455.457 85.1094C454.311 85.1094 453.475 85.321 452.947 85.7441C452.426 86.1608 452.166 86.6654 452.166 87.2578C452.166 87.7721 452.352 88.1953 452.723 88.5273C453.087 88.8594 454.038 89.2012 455.574 89.5527C457.117 89.8978 458.175 90.2005 458.748 90.4609C459.581 90.8451 460.197 91.3333 460.594 91.9258C460.991 92.5117 461.189 93.1888 461.189 93.957C461.189 94.7188 460.971 95.4382 460.535 96.1152C460.099 96.7858 459.471 97.3099 458.65 97.6875C457.837 98.0586 456.919 98.2441 455.896 98.2441C454.601 98.2441 453.514 98.0553 452.635 97.6777C451.762 97.3001 451.076 96.7337 450.574 95.9785C450.079 95.2168 449.819 94.3574 449.793 93.4004Z" fill="black"/>
<path d="M93.5 16L81.5 10L69.5 16L57.5 21L44.5 25L31.5 27.5L37.5 59L40 71.5L44.5 86.5C49.4543 93.2822 53.3702 96.7274 60.1808 102.719L60.5 103C71.1613 111.421 79.5 118.5 81.5 118.5C83.5 118.5 93.8772 109.553 102.5 103C109.817 96.7727 113.545 93.16 119.5 86.5L123.5 71.5L126 59L132 27.5L119.5 25L106.5 21L100.5 19L93.5 16Z" fill="#E0030A"/>
<path d="M101.5 78H76.5V87C79.167 92.5882 85.3111 91.1875 87.5 87V83.5H101.5C101.643 87.2129 101.373 89.9631 101 91.5C98.0434 104.756 66.9703 104.878 62.5 91.5C61.2663 87.6673 61.8118 72.1267 62 55.5C61.9685 53.719 63.5 51 64 50C64.5 49 65.3197 47.3956 66 46C66.6803 44.6044 67 42 67 42C67 42 67.1514 40.2166 67 39.5C66.9128 38.8586 66.6332 38.3928 66 37.5C66.8285 37.9782 67.6696 38.301 68 39C68.0697 39.2044 68.5834 39.8637 68.5 41.5C68.5 41.5 68.5 43.5 68 45C67.5 46.5 67.4365 47.3815 67.5 49C67.5 49 68 51.5 69.5 52.5C71 53.5 72.5 53 73.5 52.5C74.5267 51.9888 74.8763 51.0637 75 50C75 48.5 74.8173 48.1897 74.5 47C74 46 73.5 45 72 43C70.5 41 69.64 39.5803 69.5 37C69.3242 35.6248 69.8542 33.4819 71 31C72.1099 29.1968 72.7435 28.1877 74.5 26.5C76.6548 24.3568 78.7742 22.8418 83 21C84.2643 20.5938 85.2701 20.6869 86.2148 20.924C86.3309 20.9092 86.4275 20.9322 86.5 21C86.4054 20.9734 86.3104 20.948 86.2148 20.924C85.2552 21.0459 82.9664 23.7457 82 25C80.9167 26.4061 79.6955 30.4036 80 32.5C80.3045 34.5964 80.8413 35.8205 81.8909 37.38C82.9406 38.9396 87.8409 43.0815 91 45C90.8375 44.3143 90.2674 43.3842 90 43C89.143 41.4238 88.4114 41.0091 88 39.5C87.7462 38.2321 87.5847 36.9703 88 36C88.5238 34.7165 89.4997 33.9868 91 33C90.8241 34.4074 90.8183 35.1756 91 36.5C91.2118 37.5842 91.5903 38.1172 92.5 39C95.1058 41.3675 96.529 42.9044 99 46C100.891 49.1835 101.243 51.376 101.5 55.5V78Z" fill="white"/>
<path d="M87 71H76.5V63C79.5229 56.8348 85.6746 59.2014 87 63V71Z" fill="#E0030A"/>
<path d="M144 42.7255H163.517V49.6396H155.705V56.1909H163.017V62.7635H155.705V70.3604H164.296V77.2745H144V42.7255Z" fill="#E0030A"/>
<path d="M191.403 42.7255L187.316 58.0047L193.488 77.2745H182.645C181.348 73.8317 180.161 69.642 179.086 64.7054C178.79 66.882 178.382 69.1938 177.863 71.6408L176.751 77.2745H165.352L169.578 58.0047L165.352 42.7255H176.668C176.871 43.6787 177.279 45.265 177.891 47.4843C178.373 49.1772 178.771 50.7279 179.086 52.1363L181.588 42.7255H191.403Z" fill="#E0030A"/>
<path d="M218.732 42.7255V49.6396H211.782V77.2745H200.077V49.6396H193.154V42.7255H218.732Z" fill="#E0030A"/>
<path d="M233.106 42.7255V77.2745H221.401V42.7255H233.106Z" fill="#E0030A"/>
<path d="M263.938 42.7255V77.2745H253.679L247.591 61.5685V77.2745H237.804V42.7255H247.591L254.152 58.2822V42.7255H263.938Z" fill="#E0030A"/>
<path d="M268.665 42.7255H277.422C283.076 42.7255 286.894 42.9247 288.877 43.3231C290.879 43.7214 292.399 44.3758 293.437 45.2863C294.474 46.1968 295.123 47.214 295.383 48.3379C295.642 49.4475 295.772 51.6384 295.772 54.9105V67.0101C295.772 70.1114 295.577 72.1885 295.188 73.2413C294.817 74.2798 294.159 75.0978 293.214 75.6953C292.269 76.2786 291.101 76.6912 289.711 76.933C288.321 77.1606 286.226 77.2745 283.428 77.2745H268.665V42.7255ZM280.37 48.6366V71.3634C282.056 71.3634 283.094 71.1073 283.483 70.5951C283.873 70.0688 284.067 68.6532 284.067 66.3485V52.9259C284.067 51.361 284.002 50.358 283.873 49.917C283.743 49.476 283.446 49.1559 282.983 48.9567C282.52 48.7433 281.648 48.6366 280.37 48.6366Z" fill="#E0030A"/>
<path d="M326.743 42.7255V65.8151C326.743 68.4327 326.632 70.275 326.41 71.342C326.187 72.3948 325.529 73.4831 324.436 74.607C323.342 75.7167 321.897 76.5631 320.099 77.1464C318.319 77.7155 316.216 78 313.788 78C311.1 78 308.728 77.6586 306.67 76.9757C304.613 76.2928 303.075 75.4037 302.055 74.3082C301.036 73.2128 300.433 72.0605 300.248 70.8512C300.063 69.6277 299.97 67.067 299.97 63.1689V42.7255H311.675V68.6319C311.675 70.1399 311.777 71.1073 311.981 71.5341C312.203 71.9467 312.639 72.1529 313.287 72.1529C314.029 72.1529 314.501 71.9253 314.705 71.4701C314.928 71.0006 315.039 69.9052 315.039 68.1838V42.7255H326.743Z" fill="#E0030A"/>
<path d="M356.075 53.182H345.204V50.6212C345.204 49.4262 345.065 48.6651 344.787 48.3379C344.509 48.0107 344.046 47.8471 343.397 47.8471C342.693 47.8471 342.155 48.0676 341.784 48.5086C341.432 48.9496 341.256 49.6183 341.256 50.5145C341.256 51.6669 341.46 52.5347 341.868 53.118C342.257 53.7012 343.36 54.4055 345.176 55.2306C350.385 57.6064 353.665 59.5554 355.018 61.0777C356.371 62.5999 357.048 65.0539 357.048 68.4398C357.048 70.901 356.668 72.7149 355.908 73.8814C355.167 75.048 353.721 76.0296 351.571 76.8263C349.421 77.6088 346.919 78 344.064 78C340.932 78 338.254 77.5448 336.029 76.6343C333.824 75.7238 332.378 74.5643 331.692 73.1559C331.006 71.7475 330.664 69.7487 330.664 67.1595V64.8975H341.534V69.1014C341.534 70.396 341.682 71.2282 341.979 71.5981C342.294 71.968 342.841 72.1529 343.619 72.1529C344.398 72.1529 344.972 71.9182 345.343 71.4487C345.732 70.9793 345.927 70.2822 345.927 69.3574C345.927 67.3231 345.566 65.9929 344.843 65.3669C344.101 64.741 342.276 63.6953 339.366 62.23C336.456 60.7504 334.528 59.6763 333.583 59.0077C332.638 58.3391 331.85 57.4143 331.22 56.2336C330.608 55.0528 330.302 53.5448 330.302 51.7095C330.302 49.0634 330.738 47.1286 331.609 45.9052C332.499 44.6817 333.926 43.7285 335.89 43.0456C337.855 42.3485 340.228 42 343.008 42C346.047 42 348.633 42.377 350.765 43.131C352.915 43.885 354.332 44.8382 355.018 45.9905C355.723 47.1286 356.075 49.0705 356.075 51.8162V53.182Z" fill="#E0030A"/>
<path d="M384.322 42.7255V49.6396H377.371V77.2745H365.666V49.6396H358.744V42.7255H384.322Z" fill="#E0030A"/>
<path d="M386.991 42.7255H395.276C400.799 42.7255 404.534 42.8892 406.48 43.2164C408.445 43.5436 410.039 44.3829 411.262 45.7344C412.504 47.0717 413.125 49.2128 413.125 52.1577C413.125 54.8465 412.689 56.6532 411.818 57.5779C410.947 58.5027 409.232 59.0575 406.675 59.2424C408.991 59.6835 410.548 60.2739 411.345 61.0136C412.142 61.7534 412.634 62.4363 412.819 63.0622C413.023 63.674 413.125 65.374 413.125 68.1624V77.2745H402.254V65.7937C402.254 63.9443 402.059 62.7991 401.67 62.358C401.3 61.917 400.308 61.6965 398.695 61.6965V77.2745H386.991V42.7255ZM398.695 48.6366V56.3189C400.011 56.3189 400.929 56.1838 401.448 55.9135C401.985 55.6289 402.254 54.7255 402.254 53.2033V51.3041C402.254 50.2087 401.995 49.4902 401.476 49.1488C400.975 48.8074 400.048 48.6366 398.695 48.6366Z" fill="#E0030A"/>
<path d="M429.389 42.7255V77.2745H417.684V42.7255H429.389Z" fill="#E0030A"/>
<path d="M454.3 42.7255L461 77.2745H449.017L448.433 71.0646H444.235L443.54 77.2745H431.419L437.368 42.7255H454.3ZM448.1 64.9401C447.507 61.0279 446.914 56.198 446.32 50.4505C445.134 57.0516 444.393 61.8814 444.096 64.9401H448.1Z" fill="#E0030A"/>
</svg>
